<svg width="180" height="34" viewBox="0 0 180 34" fill="none" xmlns="http://www.w3.org/2000/svg">
<path d="M78.4002 33.5606C78.2714 33.5606 78.1725 33.5238 78.1035 33.4502C78.0345 33.3767 78 33.2755 78 33.1468V29.0019C78 28.8686 78.0368 28.7675 78.1104 28.6985C78.184 28.6249 78.2852 28.5882 78.414 28.5882C78.529 28.5882 78.6186 28.6111 78.683 28.6571C78.752 28.6985 78.8141 28.7721 78.8693 28.8778L80.5735 32.0295H80.3527L82.0569 28.8778C82.1121 28.7721 82.1718 28.6985 82.2362 28.6571C82.3006 28.6111 82.3903 28.5882 82.5053 28.5882C82.6341 28.5882 82.733 28.6249 82.802 28.6985C82.871 28.7675 82.9055 28.8686 82.9055 29.0019V33.1468C82.9055 33.2755 82.871 33.3767 82.802 33.4502C82.7376 33.5238 82.6387 33.5606 82.5053 33.5606C82.3765 33.5606 82.2776 33.5238 82.2086 33.4502C82.1397 33.3767 82.1052 33.2755 82.1052 33.1468V29.9537H82.2569L80.8081 32.5951C80.7621 32.6732 80.7138 32.7307 80.6632 32.7675C80.6126 32.8042 80.5436 32.8226 80.4562 32.8226C80.3688 32.8226 80.2975 32.8042 80.2423 32.7675C80.1871 32.7261 80.1388 32.6686 80.0974 32.5951L78.6347 29.9468H78.8003V33.1468C78.8003 33.2755 78.7658 33.3767 78.6968 33.4502C78.6324 33.5238 78.5336 33.5606 78.4002 33.5606Z" fill="white"/>
<path d="M84.0243 33.5606C83.9139 33.5606 83.8242 33.5353 83.7552 33.4847C83.6909 33.4341 83.6518 33.3675 83.638 33.2847C83.6242 33.1974 83.6403 33.1008 83.6863 32.9951L85.5077 28.9606C85.5675 28.8272 85.6388 28.733 85.7216 28.6778C85.809 28.618 85.9079 28.5882 86.0183 28.5882C86.124 28.5882 86.2183 28.618 86.3011 28.6778C86.3885 28.733 86.4621 28.8272 86.5219 28.9606L88.3503 32.9951C88.4009 33.1008 88.4193 33.1974 88.4055 33.2847C88.3917 33.3721 88.3526 33.441 88.2882 33.4916C88.2238 33.5376 88.1387 33.5606 88.0329 33.5606C87.9041 33.5606 87.8029 33.5307 87.7293 33.4709C87.6603 33.4065 87.5982 33.31 87.543 33.1813L87.0946 32.1399L87.4671 32.3813H84.5556L84.9281 32.1399L84.4866 33.1813C84.4268 33.3146 84.3647 33.4111 84.3003 33.4709C84.2359 33.5307 84.1439 33.5606 84.0243 33.5606ZM86.0045 29.6019L85.0385 31.8985L84.8592 31.6778H87.1636L86.9911 31.8985L86.0183 29.6019H86.0045Z" fill="white"/>
<path d="M89.5517 33.5606C89.4091 33.5606 89.2987 33.5215 89.2206 33.4433C89.147 33.3606 89.1102 33.2479 89.1102 33.1054V29.0364C89.1102 28.8893 89.147 28.779 89.2206 28.7054C89.2987 28.6272 89.4091 28.5882 89.5517 28.5882C89.6943 28.5882 89.8024 28.6272 89.876 28.7054C89.9542 28.779 89.9933 28.8893 89.9933 29.0364V30.7951H90.0071L91.9872 28.8088C92.0608 28.7353 92.1344 28.6801 92.208 28.6433C92.2816 28.6065 92.3644 28.5882 92.4564 28.5882C92.5898 28.5882 92.6841 28.6226 92.7393 28.6916C92.7991 28.7606 92.8221 28.841 92.8083 28.933C92.7991 29.0249 92.7554 29.11 92.6772 29.1882L90.6625 31.1813L90.6694 30.7813L92.7738 32.9192C92.8703 33.0111 92.9209 33.1077 92.9255 33.2088C92.9301 33.31 92.8979 33.3951 92.829 33.464C92.7646 33.5284 92.668 33.5606 92.5392 33.5606C92.4288 33.5606 92.3391 33.5376 92.2701 33.4916C92.2057 33.4456 92.1298 33.379 92.0424 33.2916L90.0071 31.2571H89.9933V33.1054C89.9933 33.2479 89.9565 33.3606 89.8829 33.4433C89.8093 33.5215 89.6989 33.5606 89.5517 33.5606Z" fill="white"/>
<path d="M94.1677 33.5054C94.0159 33.5054 93.8986 33.4663 93.8158 33.3882C93.7376 33.3054 93.6985 33.1882 93.6985 33.0364V29.1123C93.6985 28.9606 93.7376 28.8456 93.8158 28.7675C93.8986 28.6847 94.0159 28.6433 94.1677 28.6433H96.6308C96.7458 28.6433 96.8332 28.6732 96.893 28.733C96.9574 28.7928 96.9896 28.8778 96.9896 28.9882C96.9896 29.1031 96.9574 29.1928 96.893 29.2571C96.8332 29.3169 96.7458 29.3468 96.6308 29.3468H94.5472V30.6847H96.479C96.5986 30.6847 96.6883 30.7146 96.7481 30.7744C96.8079 30.8341 96.8378 30.9215 96.8378 31.0364C96.8378 31.1514 96.8079 31.2387 96.7481 31.2985C96.6883 31.3583 96.5986 31.3882 96.479 31.3882H94.5472V32.8019H96.6308C96.7458 32.8019 96.8332 32.8318 96.893 32.8916C96.9574 32.9514 96.9896 33.0387 96.9896 33.1537C96.9896 33.2686 96.9574 33.356 96.893 33.4157C96.8332 33.4755 96.7458 33.5054 96.6308 33.5054H94.1677Z" fill="white"/>
<path d="M99.4245 33.5744C99.2221 33.5744 99.0197 33.5583 98.8173 33.5261C98.6149 33.4985 98.4241 33.4548 98.2447 33.3951C98.0653 33.3307 97.9043 33.2525 97.7617 33.1606C97.6789 33.1054 97.6214 33.0387 97.5892 32.9606C97.557 32.8824 97.5455 32.8065 97.5547 32.733C97.5685 32.6548 97.5984 32.5882 97.6444 32.533C97.695 32.4732 97.7571 32.4364 97.8307 32.4226C97.9043 32.4088 97.9848 32.4295 98.0722 32.4847C98.2746 32.6042 98.4884 32.6916 98.7138 32.7468C98.9392 32.8019 99.1761 32.8295 99.4245 32.8295C99.7878 32.8295 100.052 32.7698 100.218 32.6502C100.383 32.5261 100.466 32.3675 100.466 32.1744C100.466 32.0134 100.406 31.887 100.287 31.7951C100.172 31.7031 99.9718 31.6272 99.6866 31.5675L98.9277 31.4088C98.4907 31.3169 98.1642 31.1629 97.948 30.9468C97.7364 30.7261 97.6306 30.4364 97.6306 30.0778C97.6306 29.8525 97.6766 29.6479 97.7686 29.464C97.8606 29.2801 97.9894 29.1215 98.155 28.9882C98.3252 28.8548 98.5252 28.7537 98.7552 28.6847C98.9898 28.6111 99.2474 28.5744 99.528 28.5744C99.8039 28.5744 100.066 28.6088 100.314 28.6778C100.563 28.7468 100.786 28.8479 100.984 28.9813C101.057 29.0318 101.106 29.0939 101.129 29.1675C101.156 29.241 101.163 29.3146 101.149 29.3882C101.136 29.4571 101.103 29.5169 101.053 29.5675C101.002 29.618 100.938 29.6479 100.86 29.6571C100.786 29.6663 100.701 29.6433 100.604 29.5882C100.434 29.4916 100.262 29.4226 100.087 29.3813C99.912 29.3399 99.7234 29.3192 99.5211 29.3192C99.3095 29.3192 99.1278 29.3491 98.976 29.4088C98.8242 29.4686 98.7069 29.5537 98.6241 29.664C98.5459 29.7698 98.5068 29.8962 98.5068 30.0433C98.5068 30.2088 98.562 30.3422 98.6724 30.4433C98.7828 30.5399 98.9714 30.6157 99.2382 30.6709L99.9902 30.8295C100.446 30.9261 100.784 31.0778 101.004 31.2847C101.23 31.4916 101.343 31.7675 101.343 32.1123C101.343 32.333 101.297 32.533 101.205 32.7123C101.117 32.8916 100.988 33.0456 100.818 33.1744C100.653 33.3031 100.452 33.4019 100.218 33.4709C99.9833 33.5399 99.7188 33.5744 99.4245 33.5744Z" fill="white"/>
<path d="M105.574 33.5606C105.432 33.5606 105.321 33.5215 105.243 33.4433C105.169 33.3606 105.133 33.2456 105.133 33.0985V31.0019L105.319 31.533L103.656 29.1951C103.596 29.1123 103.569 29.0249 103.573 28.933C103.583 28.8364 103.622 28.756 103.691 28.6916C103.76 28.6226 103.856 28.5882 103.98 28.5882C104.072 28.5882 104.155 28.6111 104.229 28.6571C104.307 28.7031 104.381 28.7744 104.45 28.8709L105.685 30.6226H105.491L106.733 28.8709C106.807 28.7698 106.878 28.6985 106.947 28.6571C107.016 28.6111 107.101 28.5882 107.202 28.5882C107.322 28.5882 107.414 28.6203 107.478 28.6847C107.547 28.7445 107.582 28.8203 107.582 28.9123C107.587 29.0042 107.554 29.1008 107.485 29.202L105.836 31.533L106.016 31.0019V33.0985C106.016 33.4065 105.869 33.5606 105.574 33.5606Z" fill="white"/>
<path d="M110.122 33.5744C109.653 33.5744 109.241 33.4709 108.887 33.264C108.538 33.0571 108.266 32.7675 108.073 32.3951C107.88 32.018 107.783 31.5767 107.783 31.0709C107.783 30.6893 107.839 30.3468 107.949 30.0433C108.059 29.7353 108.216 29.4732 108.418 29.2571C108.625 29.0364 108.871 28.8686 109.156 28.7537C109.446 28.6341 109.768 28.5744 110.122 28.5744C110.596 28.5744 111.008 28.6778 111.357 28.8847C111.707 29.087 111.978 29.3744 112.171 29.7468C112.365 30.1192 112.461 30.5583 112.461 31.064C112.461 31.4456 112.406 31.7905 112.296 32.0985C112.185 32.4065 112.027 32.6709 111.82 32.8916C111.617 33.1123 111.371 33.2824 111.081 33.402C110.796 33.5169 110.476 33.5744 110.122 33.5744ZM110.122 32.8157C110.421 32.8157 110.674 32.7468 110.881 32.6088C111.093 32.4709 111.254 32.2709 111.364 32.0088C111.479 31.7468 111.537 31.4341 111.537 31.0709C111.537 30.5192 111.412 30.0916 111.164 29.7882C110.92 29.4847 110.573 29.333 110.122 29.333C109.828 29.333 109.575 29.4019 109.363 29.5399C109.152 29.6732 108.988 29.8709 108.873 30.133C108.763 30.3905 108.708 30.7031 108.708 31.0709C108.708 31.618 108.832 32.0456 109.08 32.3537C109.329 32.6617 109.676 32.8157 110.122 32.8157Z" fill="white"/>
<path d="M115.381 33.5744C115.045 33.5744 114.748 33.5307 114.491 33.4433C114.238 33.356 114.024 33.2272 113.849 33.0571C113.674 32.8824 113.543 32.6663 113.456 32.4088C113.368 32.1514 113.325 31.8525 113.325 31.5123V29.0364C113.325 28.8847 113.361 28.7721 113.435 28.6985C113.513 28.6249 113.624 28.5882 113.766 28.5882C113.909 28.5882 114.017 28.6249 114.091 28.6985C114.169 28.7721 114.208 28.8847 114.208 29.0364V31.5054C114.208 31.9422 114.307 32.2709 114.504 32.4916C114.707 32.7077 114.999 32.8157 115.381 32.8157C115.762 32.8157 116.052 32.7077 116.25 32.4916C116.448 32.2709 116.547 31.9422 116.547 31.5054V29.0364C116.547 28.8847 116.584 28.7721 116.657 28.6985C116.735 28.6249 116.846 28.5882 116.988 28.5882C117.126 28.5882 117.232 28.6249 117.306 28.6985C117.384 28.7721 117.423 28.8847 117.423 29.0364V31.5123C117.423 31.9629 117.345 32.3422 117.188 32.6502C117.037 32.9583 116.809 33.1905 116.505 33.3468C116.202 33.4985 115.827 33.5744 115.381 33.5744Z" fill="white"/>
<path d="M120.768 33.5606C120.625 33.5606 120.515 33.5215 120.436 33.4433C120.363 33.3606 120.326 33.2479 120.326 33.1054V29.0433C120.326 28.8962 120.363 28.7836 120.436 28.7054C120.515 28.6272 120.625 28.5882 120.768 28.5882C120.91 28.5882 121.018 28.6272 121.092 28.7054C121.17 28.7836 121.209 28.8962 121.209 29.0433V30.6709H123.714V29.0433C123.714 28.8962 123.75 28.7836 123.824 28.7054C123.902 28.6272 124.013 28.5882 124.155 28.5882C124.298 28.5882 124.406 28.6272 124.479 28.7054C124.558 28.7836 124.597 28.8962 124.597 29.0433V33.1054C124.597 33.2479 124.558 33.3606 124.479 33.4433C124.406 33.5215 124.298 33.5606 124.155 33.5606C124.013 33.5606 123.902 33.5215 123.824 33.4433C123.75 33.3606 123.714 33.2479 123.714 33.1054V31.4088H121.209V33.1054C121.209 33.2479 121.172 33.3606 121.099 33.4433C121.025 33.5215 120.915 33.5606 120.768 33.5606Z" fill="white"/>
<path d="M126.104 33.5606C125.961 33.5606 125.851 33.5215 125.773 33.4433C125.699 33.3606 125.662 33.2479 125.662 33.1054V29.0433C125.662 28.8962 125.699 28.7836 125.773 28.7054C125.851 28.6272 125.961 28.5882 126.104 28.5882C126.246 28.5882 126.354 28.6272 126.428 28.7054C126.506 28.7836 126.545 28.8962 126.545 29.0433V33.1054C126.545 33.2479 126.509 33.3606 126.435 33.4433C126.361 33.5215 126.251 33.5606 126.104 33.5606Z" fill="white"/>
<path d="M129.948 33.5744C129.41 33.5744 128.955 33.4732 128.582 33.2709C128.214 33.0686 127.934 32.7813 127.741 32.4088C127.547 32.0364 127.451 31.5951 127.451 31.0847C127.451 30.6985 127.506 30.3514 127.616 30.0433C127.731 29.7353 127.895 29.4732 128.106 29.2571C128.322 29.0364 128.585 28.8686 128.893 28.7537C129.201 28.6341 129.55 28.5744 129.941 28.5744C130.199 28.5744 130.457 28.6065 130.714 28.6709C130.976 28.7307 131.222 28.8341 131.452 28.9813C131.531 29.0318 131.581 29.0939 131.604 29.1675C131.632 29.241 131.636 29.3169 131.618 29.3951C131.6 29.4686 131.565 29.533 131.515 29.5882C131.464 29.6433 131.4 29.6778 131.321 29.6916C131.248 29.7054 131.165 29.687 131.073 29.6364C130.898 29.5353 130.721 29.4617 130.542 29.4157C130.362 29.3698 130.162 29.3468 129.941 29.3468C129.601 29.3468 129.314 29.4157 129.079 29.5537C128.844 29.687 128.667 29.8824 128.548 30.1399C128.433 30.3974 128.375 30.7123 128.375 31.0847C128.375 31.6502 128.511 32.0801 128.782 32.3744C129.054 32.6686 129.456 32.8157 129.99 32.8157C130.174 32.8157 130.36 32.7974 130.549 32.7606C130.737 32.7238 130.921 32.6732 131.101 32.6088L130.928 33.0019V31.533H130.169C130.054 31.533 129.964 31.5031 129.9 31.4433C129.84 31.3836 129.81 31.3031 129.81 31.202C129.81 31.0962 129.84 31.0157 129.9 30.9606C129.964 30.9054 130.054 30.8778 130.169 30.8778H131.308C131.423 30.8778 131.51 30.91 131.57 30.9744C131.634 31.0341 131.666 31.1215 131.666 31.2364V32.9123C131.666 33.0134 131.646 33.0985 131.604 33.1675C131.567 33.2364 131.505 33.287 131.418 33.3192C131.216 33.3928 130.983 33.4548 130.721 33.5054C130.459 33.5514 130.201 33.5744 129.948 33.5744Z" fill="white"/>
<path d="M133.131 33.5606C132.989 33.5606 132.878 33.5215 132.8 33.4433C132.726 33.3606 132.69 33.2479 132.69 33.1054V29.0433C132.69 28.8962 132.726 28.7836 132.8 28.7054C132.878 28.6272 132.989 28.5882 133.131 28.5882C133.274 28.5882 133.382 28.6272 133.456 28.7054C133.534 28.7836 133.573 28.8962 133.573 29.0433V30.6709H136.077V29.0433C136.077 28.8962 136.114 28.7836 136.188 28.7054C136.266 28.6272 136.376 28.5882 136.519 28.5882C136.661 28.5882 136.77 28.6272 136.843 28.7054C136.921 28.7836 136.96 28.8962 136.96 29.0433V33.1054C136.96 33.2479 136.921 33.3606 136.843 33.4433C136.77 33.5215 136.661 33.5606 136.519 33.5606C136.376 33.5606 136.266 33.5215 136.188 33.4433C136.114 33.3606 136.077 33.2479 136.077 33.1054V31.4088H133.573V33.1054C133.573 33.2479 133.536 33.3606 133.462 33.4433C133.389 33.5215 133.278 33.5606 133.131 33.5606Z" fill="white"/>
<path d="M138.495 33.5054C138.343 33.5054 138.226 33.4663 138.143 33.3882C138.065 33.3054 138.026 33.1882 138.026 33.0364V29.1123C138.026 28.9606 138.065 28.8456 138.143 28.7675C138.226 28.6847 138.343 28.6433 138.495 28.6433H140.958C141.073 28.6433 141.161 28.6732 141.22 28.733C141.285 28.7928 141.317 28.8778 141.317 28.9882C141.317 29.1031 141.285 29.1928 141.22 29.2571C141.161 29.3169 141.073 29.3468 140.958 29.3468H138.875V30.6847H140.806C140.926 30.6847 141.016 30.7146 141.075 30.7744C141.135 30.8341 141.165 30.9215 141.165 31.0364C141.165 31.1514 141.135 31.2387 141.075 31.2985C141.016 31.3583 140.926 31.3882 140.806 31.3882H138.875V32.8019H140.958C141.073 32.8019 141.161 32.8318 141.22 32.8916C141.285 32.9514 141.317 33.0387 141.317 33.1537C141.317 33.2686 141.285 33.356 141.22 33.4157C141.161 33.4755 141.073 33.5054 140.958 33.5054H138.495Z" fill="white"/>
<path d="M142.584 33.5606C142.442 33.5606 142.331 33.5215 142.253 33.4433C142.179 33.3606 142.143 33.2479 142.143 33.1054V29.0916C142.143 28.9445 142.182 28.8341 142.26 28.7606C142.338 28.6824 142.449 28.6433 142.591 28.6433H144.254C144.787 28.6433 145.199 28.7721 145.489 29.0295C145.779 29.2824 145.924 29.6387 145.924 30.0985C145.924 30.3974 145.857 30.6548 145.723 30.8709C145.595 31.087 145.406 31.2525 145.158 31.3675C144.909 31.4824 144.608 31.5399 144.254 31.5399L144.316 31.4364H144.544C144.732 31.4364 144.896 31.4824 145.034 31.5744C145.176 31.6663 145.3 31.8111 145.406 32.0088L145.924 32.9675C145.979 33.064 146.004 33.1583 145.999 33.2502C145.995 33.3422 145.96 33.418 145.896 33.4778C145.832 33.533 145.737 33.5606 145.613 33.5606C145.489 33.5606 145.388 33.5353 145.31 33.4847C145.231 33.4295 145.162 33.3468 145.103 33.2364L144.406 31.9537C144.323 31.7974 144.224 31.6939 144.109 31.6433C143.999 31.5882 143.856 31.5606 143.681 31.5606H143.026V33.1054C143.026 33.2479 142.989 33.3606 142.915 33.4433C142.842 33.5215 142.731 33.5606 142.584 33.5606ZM143.026 30.9054H144.102C144.42 30.9054 144.659 30.841 144.82 30.7123C144.985 30.579 145.068 30.3813 145.068 30.1192C145.068 29.8617 144.985 29.6686 144.82 29.5399C144.659 29.4065 144.42 29.3399 144.102 29.3399H143.026V30.9054Z" fill="white"/>
<path d="M78.8234 20.6239C78.2524 20.6239 77.8012 20.468 77.4697 20.1563C77.1566 19.8263 77 19.3587 77 18.7537V2.88459C77 2.27953 77.1566 1.82115 77.4697 1.50946C77.8012 1.17942 78.2709 1.01441 78.8787 1.01441H88.5207C88.9996 1.01441 89.3587 1.13359 89.5982 1.37194C89.8376 1.6103 89.9573 1.9495 89.9573 2.38954C89.9573 2.84792 89.8376 3.20546 89.5982 3.46215C89.3587 3.70051 88.9996 3.81969 88.5207 3.81969H80.5363V9.29274H87.9405C88.401 9.29274 88.7509 9.41191 88.9904 9.65027C89.2482 9.88863 89.3771 10.2278 89.3771 10.6679C89.3771 11.1263 89.2482 11.4838 88.9904 11.7405C88.7509 11.9788 88.401 12.098 87.9405 12.098H80.5363V18.7537C80.5363 20.0005 79.9654 20.6239 78.8234 20.6239Z" fill="white"/>
<path d="M97.902 20.6789C96.3732 20.6789 95.2221 20.248 94.4485 19.3862C93.6749 18.5062 93.2882 17.2227 93.2882 15.5359V2.52706C93.2882 1.95867 93.4355 1.52779 93.7302 1.23443C94.0249 0.941066 94.4485 0.794385 95.0011 0.794385C95.5536 0.794385 95.9772 0.941066 96.2719 1.23443C96.585 1.52779 96.7416 1.95867 96.7416 2.52706V15.3708C96.7416 16.2143 96.9166 16.8377 97.2665 17.241C97.6349 17.6444 98.1506 17.8461 98.8137 17.8461C98.961 17.8461 99.0992 17.8461 99.2281 17.8461C99.357 17.8278 99.4859 17.8094 99.6149 17.7911C99.8727 17.7544 100.048 17.8278 100.14 18.0111C100.232 18.1761 100.278 18.5245 100.278 19.0562C100.278 19.5146 100.186 19.8721 100.002 20.1288C99.8175 20.3855 99.5136 20.5414 99.0899 20.5964C98.9058 20.6147 98.7124 20.633 98.5098 20.6514C98.3072 20.6697 98.1046 20.6789 97.902 20.6789Z" fill="white"/>
<path d="M105.186 25.5744C104.78 25.5744 104.449 25.4644 104.191 25.2443C103.933 25.0426 103.777 24.7676 103.721 24.4192C103.685 24.0709 103.749 23.7042 103.915 23.3191L105.794 19.1662V20.5964L100.765 9.01771C100.6 8.61433 100.544 8.23846 100.6 7.89009C100.655 7.54173 100.821 7.2667 101.097 7.06501C101.392 6.84499 101.788 6.73498 102.285 6.73498C102.708 6.73498 103.049 6.83582 103.307 7.03751C103.565 7.22086 103.795 7.5784 103.998 8.11012L107.727 17.3785H106.899L110.711 8.08261C110.914 7.56923 111.153 7.22086 111.43 7.03751C111.706 6.83582 112.074 6.73498 112.535 6.73498C112.94 6.73498 113.262 6.84499 113.502 7.06501C113.741 7.2667 113.888 7.54173 113.944 7.89009C113.999 8.22013 113.934 8.58683 113.75 8.9902L107.037 24.2542C106.797 24.7676 106.539 25.116 106.263 25.2993C105.987 25.4827 105.628 25.5744 105.186 25.5744Z" fill="white"/>
<path d="M118.015 20.5964C117.462 20.5964 117.039 20.4313 116.744 20.1013C116.449 19.7713 116.302 19.3129 116.302 18.7262V8.63267C116.302 8.02761 116.449 7.56923 116.744 7.25753C117.039 6.9275 117.462 6.76248 118.015 6.76248C118.568 6.76248 118.991 6.9275 119.286 7.25753C119.599 7.56923 119.756 8.02761 119.756 8.63267V18.7262C119.756 19.3129 119.608 19.7713 119.314 20.1013C119.019 20.4313 118.586 20.5964 118.015 20.5964ZM118.015 4.20473C117.37 4.20473 116.864 4.04888 116.496 3.73718C116.146 3.40715 115.971 2.95794 115.971 2.38954C115.971 1.80282 116.146 1.35361 116.496 1.04191C116.864 0.730212 117.37 0.574364 118.015 0.574364C118.678 0.574364 119.185 0.730212 119.535 1.04191C119.884 1.35361 120.059 1.80282 120.059 2.38954C120.059 2.95794 119.884 3.40715 119.535 3.73718C119.185 4.04888 118.678 4.20473 118.015 4.20473Z" fill="white"/>
<path d="M125.057 20.6239C124.504 20.6239 124.081 20.4772 123.786 20.1838C123.491 19.8721 123.344 19.4321 123.344 18.8637V8.46765C123.344 7.89926 123.491 7.46839 123.786 7.17502C124.081 6.88166 124.495 6.73498 125.029 6.73498C125.563 6.73498 125.978 6.88166 126.272 7.17502C126.567 7.46839 126.714 7.89926 126.714 8.46765V10.3378L126.411 9.65027C126.816 8.67851 127.442 7.9451 128.289 7.45005C129.155 6.93667 130.131 6.67997 131.218 6.67997C132.304 6.67997 133.198 6.88166 133.898 7.28504C134.598 7.68841 135.122 8.30264 135.472 9.12772C135.822 9.93447 135.997 10.9612 135.997 12.208V18.8637C135.997 19.4321 135.85 19.8721 135.555 20.1838C135.261 20.4772 134.837 20.6239 134.284 20.6239C133.732 20.6239 133.299 20.4772 132.986 20.1838C132.691 19.8721 132.544 19.4321 132.544 18.8637V12.373C132.544 11.3279 132.341 10.567 131.936 10.0903C131.549 9.6136 130.941 9.37524 130.113 9.37524C129.1 9.37524 128.289 9.69611 127.681 10.3378C127.092 10.9612 126.797 11.7955 126.797 12.8406V18.8637C126.797 20.0371 126.217 20.6239 125.057 20.6239Z" fill="white"/>
<path d="M141.119 7.75258C140.88 8.04594 140.622 8.21096 140.345 8.24763C140.088 8.2843 139.857 8.23846 139.655 8.11012C139.452 7.96344 139.342 7.76175 139.323 7.50506C139.305 7.23003 139.424 6.93667 139.682 6.62497C140.051 6.16659 140.299 5.70821 140.428 5.24983C140.557 4.79145 140.622 4.38808 140.622 4.03971L140.76 4.9473C140.115 4.9473 139.59 4.76395 139.185 4.39725C138.798 4.03054 138.605 3.53549 138.605 2.9121C138.605 2.30704 138.789 1.82115 139.157 1.45445C139.526 1.06941 140.023 0.876893 140.649 0.876893C141.294 0.876893 141.8 1.09692 142.169 1.53696C142.537 1.95867 142.721 2.5729 142.721 3.37964C142.721 3.81969 142.675 4.27807 142.583 4.75478C142.51 5.21316 142.353 5.69904 142.114 6.21243C141.893 6.70748 141.561 7.22086 141.119 7.75258Z" fill="white"/>
<path d="M154.299 20.6789C152.954 20.6789 151.766 20.5047 150.735 20.1563C149.722 19.808 148.865 19.2946 148.165 18.6162C147.465 17.9194 146.94 17.0577 146.591 16.0309C146.241 15.0041 146.066 13.8124 146.066 12.4556V2.58206C146.066 1.977 146.213 1.52779 146.508 1.23443C146.821 0.941066 147.263 0.794385 147.834 0.794385C148.405 0.794385 148.838 0.941066 149.132 1.23443C149.445 1.52779 149.602 1.977 149.602 2.58206V12.428C149.602 14.1699 149.998 15.4809 150.79 16.3609C151.6 17.2227 152.77 17.6536 154.299 17.6536C155.827 17.6536 156.988 17.2227 157.78 16.3609C158.572 15.4809 158.968 14.1699 158.968 12.428V2.58206C158.968 1.977 159.115 1.52779 159.41 1.23443C159.723 0.941066 160.165 0.794385 160.736 0.794385C161.288 0.794385 161.712 0.941066 162.007 1.23443C162.32 1.52779 162.476 1.977 162.476 2.58206V12.4556C162.476 14.2524 162.163 15.765 161.537 16.9935C160.929 18.222 160.018 19.1479 158.802 19.7713C157.586 20.3763 156.085 20.6789 154.299 20.6789Z" fill="white"/>
<path d="M167.982 25.5744C167.429 25.5744 167.006 25.4277 166.711 25.1343C166.416 24.841 166.269 24.4101 166.269 23.8417V8.46765C166.269 7.89926 166.416 7.46839 166.711 7.17502C167.006 6.88166 167.42 6.73498 167.954 6.73498C168.507 6.73498 168.931 6.88166 169.225 7.17502C169.52 7.46839 169.667 7.89926 169.667 8.46765V10.6129L169.363 9.78778C169.64 8.85269 170.201 8.10095 171.049 7.53256C171.914 6.96417 172.918 6.67997 174.06 6.67997C175.239 6.67997 176.27 6.96417 177.154 7.53256C178.057 8.10095 178.757 8.9077 179.254 9.9528C179.751 10.9796 180 12.2172 180 13.6657C180 15.0958 179.751 16.3426 179.254 17.406C178.757 18.4512 178.066 19.2579 177.182 19.8263C176.298 20.3947 175.257 20.6789 174.06 20.6789C172.937 20.6789 171.951 20.4038 171.104 19.8538C170.257 19.2854 169.686 18.552 169.391 17.6536H169.723V23.8417C169.723 24.4101 169.566 24.841 169.253 25.1343C168.958 25.4277 168.535 25.5744 167.982 25.5744ZM173.093 18.0661C173.775 18.0661 174.373 17.9011 174.889 17.5711C175.405 17.241 175.801 16.7551 176.077 16.1134C176.372 15.4534 176.519 14.6374 176.519 13.6657C176.519 12.1989 176.206 11.1079 175.58 10.3928C174.953 9.65944 174.125 9.29274 173.093 9.29274C172.412 9.29274 171.813 9.45775 171.297 9.78778C170.782 10.0995 170.376 10.5854 170.082 11.2454C169.805 11.8872 169.667 12.6939 169.667 13.6657C169.667 15.1142 169.98 16.2143 170.607 16.966C171.233 17.6994 172.062 18.0661 173.093 18.0661Z" fill="white"/>
<path fill-rule="evenodd" clip-rule="evenodd" d="M35.7659 2.1543C46.4851 1.62768 57.2044 1.10105 67.9236 0.574364C65.4337 3.13238 63.0387 6.97407 60.4539 8.24834C59.9474 9.05712 31.7778 8.00381 29.1191 9.65899C26.5659 10.59 15.5618 26.0367 14.0531 26.0791C12.2912 27.1465 5.76576 26.4365 1.64585 26.6997C0.949173 26.7342 0.452606 27.0493 0 27.5744C1.17376 25.9168 2.24669 23.2601 3.94266 22.7452C4.80779 22.4372 5.79742 22.5852 6.52011 22.2702C7.59934 21.758 8.18149 20.6992 9.36873 20.0978C11.347 19.2608 14.7019 20.5539 16.6802 19.2796C23.0421 13.5712 29.0242 2.33287 35.7659 2.15417V2.1543Z" fill="#E31E24"/>
<path fill-rule="evenodd" clip-rule="evenodd" d="M58.9338 11.5744C47.609 11.9521 32.4536 11.0773 30.9263 12.1406C29.2096 12.5867 26.2908 16.4298 23.9731 18.5744C33.4714 18.1969 50.4915 18.3149 52.1756 17.9053C53.811 17.5321 56.6811 13.6846 58.9338 11.5744V11.5744Z" fill="#E31E24"/>
<path fill-rule="evenodd" clip-rule="evenodd" d="M49.9439 21.5771C40.868 21.9813 24.9632 20.7769 22.4611 22.7439C16.857 26.0225 17.8408 30.3977 8.98999 31.5744C12.1403 31.4666 17.1218 31.7226 18.2951 31.251C20.9525 29.9576 21.7626 27.1282 24.3879 26.0773C26.172 25.3677 38.9179 26.3019 45.4113 25.8078C46.6008 25.691 48.4331 22.9873 49.9439 21.5771Z" fill="#E31E24"/>
</svg>
